<svg xmlns:dc="http://purl.org/dc/elements/1.1/" xmlns:cc="http://creativecommons.org/ns#" xmlns:rdf="http://www.w3.org/1999/02/22-rdf-syntax-ns#" xmlns:svg="http://www.w3.org/2000/svg" xmlns="http://www.w3.org/2000/svg" xmlns:sodipodi="http://sodipodi.sourceforge.net/DTD/sodipodi-0.dtd" xmlns:inkscape="http://www.inkscape.org/namespaces/inkscape" width="709.64" height="318.6" inkscape:version="0.46" inkscape:output_extension="org.inkscape.output.svg.inkscape" version="1.0"><style>.style0{fill: none;fill-rule: evenodd;stroke: #D8F6B6;stroke-width: 15;stroke-linecap:  round;stroke-linejoin:  round;marker-start: none;}.style1{fill: #D8F6B6;stroke: #D8F6B6;stroke-width: 15;stroke-linecap:  round;stroke-linejoin:  round;}</style><defs><inkscape:perspective inkscape:vp_x="-375.86717 : 872.00093 : 1" inkscape:vp_y="835.34524 : 549.72568 : 0" inkscape:vp_z="33.180672 : 250.42515 : 1" inkscape:persp3d-origin="-317.85754 : 464.79462 : 1"/><inkscape:perspective inkscape:persp3d-origin="372.04724 : 350.78739 : 1" inkscape:vp_z="744.09448 : 526.18109 : 1" inkscape:vp_y="0 : 1000 : 0" inkscape:vp_x="0 : 526.18109 : 1"/></defs><g inkscape:label="Layer 1" inkscape:groupmode="layer"><path d="M467.67 185.15 C485.03 166.57 465.06 132.87 466.48 84.92 C467.91 37.05 500.23 20.74 500.23 20.74 C500.23 20.74 489.9 24.78 493.25 48.12 C496.09 67.92 502.38 90.94 516.75 103.7 C531.54 115.93 555.87 149.32 546.9 167.15 C564.99 161.01 593.17 175.55 613.98 194.83 C635.7 215.38 649.61 225.28 664.67 230.09 C686.3 237.01 702.14 230.91 702.14 230.91 C677.39 252.27 629.95 252.58 598.99 246.83 C568.7 241.2 551.79 224.72 524.24 231.03 C489.26 242.98 431.38 297.12 342.71 308.67 C254.04 320.22 44.45 288.28 19.32 261.84 C-5.82 235.41 17.22 226.51 15.57 227.7 C15.34 227.47 21.6 233.68 148.79 265.2 C125.97 261.53 10.59 224.21 10.8 222.67 C11.12 222.78 62.7 32.01 105.77 11.63 C148.84 -8.74 246.73 50.6 322.02 94.62 C411.29 146.83 447.86 206.35 467.67 185.15 z" class="style0"/><path d="M201.2 250.22 A13.57 12.14 0 1 1 174.06 250.22 A13.57 12.14 0 1 1 201.2 250.22 z" transform="matrix(0.8589487,0,0,0.808741,30.239465,43.723339)" class="style1"/></g></svg>